<svg width="4152" height="1660" xmlns="http://www.w3.org/2000/svg" xmlns:xlink="http://www.w3.org/1999/xlink" xml:space="preserve" overflow="hidden"><defs><clipPath id="clip0"><rect x="82" y="654" width="4152" height="1660"/></clipPath><clipPath id="clip1"><rect x="82" y="-103" width="991" height="3235"/></clipPath><clipPath id="clip2"><rect x="82" y="-103" width="991" height="3235"/></clipPath><clipPath id="clip3"><rect x="82" y="657" width="991" height="2696"/></clipPath><clipPath id="clip4"><rect x="3241" y="387" width="991" height="3235"/></clipPath></defs><g clip-path="url(#clip0)" transform="translate(-82 -654)"><g><path d="M2521 1341 1123 1341 1123 1676 2521 1676Z" fill="#EB0072"/></g><g><path d="M2451 1844 1123 1844 1123 2180 2451 2180Z" fill="#EB0072"/></g><g><path d="M2528.08 838.027 1123 838.027 1123 1173.04 2528.08 1173.04Z" fill="#EB0072"/></g><g><path d="M3191.1 838.027 2528.08 838.027 2528.08 1173.04 3191.1 1173.04ZM3191.1 1341.04 2521.08 1341.04 2521.08 1676.05 3191.1 1676.05ZM3191.1 1844.06 2451.08 1844.06 2451.08 2180.07 3191.1 2180.07Z" fill="#212121"/></g><g><text fill="#FFFFFF" font-family="Calibri,Calibri_MSFontService,sans-serif" font-weight="700" font-size="73" transform="matrix(1 0 0 1 1761.35 1031)">68%</text></g><g><text fill="#FFFFFF" font-family="Calibri,Calibri_MSFontService,sans-serif" font-weight="700" font-size="73" transform="matrix(1 0 0 1 1758.09 1534)">68%</text></g><g><text fill="#FFFFFF" font-family="Calibri,Calibri_MSFontService,sans-serif" font-weight="700" font-size="73" transform="matrix(1 0 0 1 1722.85 2037)">64%</text></g><g><text fill="#FFFFFF" font-family="Calibri,Calibri_MSFontService,sans-serif" font-weight="700" font-size="73" transform="matrix(1 0 0 1 2795.22 1031)">32%</text></g><g><text fill="#FFFFFF" font-family="Calibri,Calibri_MSFontService,sans-serif" font-weight="700" font-size="73" transform="matrix(1 0 0 1 2791.96 1534)">32%</text></g><g><text fill="#FFFFFF" font-family="Calibri,Calibri_MSFontService,sans-serif" font-weight="700" font-size="73" transform="matrix(1 0 0 1 2756.72 2037)">36%</text></g><path d="M82.5 1268.64 1072.5 1268.64" stroke="#000000" stroke-width="4.58333" stroke-linejoin="round" stroke-miterlimit="10" fill="none" fill-rule="evenodd"/><path d="M82.5 1759.41 1072.5 1759.41" stroke="#000000" stroke-width="4.58333" stroke-linejoin="round" stroke-miterlimit="10" fill="none" fill-rule="evenodd"/><path d="M82.5 777.857 1072.5 777.857" stroke="#000000" stroke-width="4.58333" stroke-linejoin="round" stroke-miterlimit="10" fill="none" fill-rule="evenodd"/><path d="M82.5 2250.19 1072.5 2250.19" stroke="#000000" stroke-width="4.58333" stroke-linejoin="round" stroke-miterlimit="10" fill="none" fill-rule="evenodd"/><g><text font-family="Replica Std,Replica Std_MSFontService,sans-serif" font-weight="400" font-size="64" transform="matrix(1 0 0 1 82.5 893)">Réduire la quantité de discours </text></g><g><text font-family="Replica Std,Replica Std_MSFontService,sans-serif" font-weight="400" font-size="64" transform="matrix(1 0 0 1 82.5 970)">haineux, le harcèlement et la </text></g><g><text font-family="Replica Std,Replica Std_MSFontService,sans-serif" font-weight="400" font-size="64" transform="matrix(1 0 0 1 82.5 1047)">désinformation en ligne est plus </text></g><g><text font-family="Replica Std,Replica Std_MSFontService,sans-serif" font-weight="400" font-size="64" transform="matrix(1 0 0 1 82.5 1124)">important que la liberté </text></g><g><text font-family="Replica Std,Replica Std_MSFontService,sans-serif" font-weight="400" font-size="64" transform="matrix(1 0 0 1 82.5 1201)">d’expression</text></g><g clip-path="url(#clip1)"><text font-family="Replica Std,Replica Std_MSFontService,sans-serif" font-weight="400" font-size="64" transform="matrix(1 0 0 1 82.5 1344)">Le gouvernement devrait intervenir </text></g><g><text font-family="Replica Std,Replica Std_MSFontService,sans-serif" font-weight="400" font-size="64" transform="matrix(1 0 0 1 82.5 1421)">auprès des plateformes en ligne </text></g><g><text font-family="Replica Std,Replica Std_MSFontService,sans-serif" font-weight="400" font-size="64" transform="matrix(1 0 0 1 82.5 1498)">pour les obliger à agir de manière </text></g><g clip-path="url(#clip2)"><text font-family="Replica Std,Replica Std_MSFontService,sans-serif" font-weight="400" font-size="64" transform="matrix(1 0 0 1 82.5 1575)">responsable et à réduire la quantité </text></g><g><text font-family="Replica Std,Replica Std_MSFontService,sans-serif" font-weight="400" font-size="64" transform="matrix(1 0 0 1 82.5 1652)">de contenu préjudiciable sur leurs </text></g><g><text font-family="Replica Std,Replica Std_MSFontService,sans-serif" font-weight="400" font-size="64" transform="matrix(1 0 0 1 82.5 1729)">plateformes</text></g><g><text font-family="Replica Std,Replica Std_MSFontService,sans-serif" font-weight="400" font-size="64" transform="matrix(1 0 0 1 82.5 1873)">La diffusion délibérée de fausses </text></g><g clip-path="url(#clip3)"><text font-family="Replica Std,Replica Std_MSFontService,sans-serif" font-weight="400" font-size="64" transform="matrix(1 0 0 1 82.5 1950)">informations constitue une menace </text></g><g><text font-family="Replica Std,Replica Std_MSFontService,sans-serif" font-weight="400" font-size="64" transform="matrix(1 0 0 1 82.5 2027)">pour la démocratie canadienne et </text></g><g><text font-family="Replica Std,Replica Std_MSFontService,sans-serif" font-weight="400" font-size="64" transform="matrix(1 0 0 1 82.5 2104)">doit être corrigée par le </text></g><g><text font-family="Replica Std,Replica Std_MSFontService,sans-serif" font-weight="400" font-size="64" transform="matrix(1 0 0 1 82.5 2181)">gouvernement</text></g><path d="M3241.07 1268.64 4231.07 1268.64" stroke="#000000" stroke-width="4.58333" stroke-linejoin="round" stroke-miterlimit="10" fill="none" fill-rule="evenodd"/><path d="M3241.07 1759.41 4231.07 1759.41" stroke="#000000" stroke-width="4.58333" stroke-linejoin="round" stroke-miterlimit="10" fill="none" fill-rule="evenodd"/><path d="M3241.07 777.857 4231.07 777.857" stroke="#000000" stroke-width="4.58333" stroke-linejoin="round" stroke-miterlimit="10" fill="none" fill-rule="evenodd"/><path d="M3241.07 2250.19 4231.07 2250.19" stroke="#000000" stroke-width="4.58333" stroke-linejoin="round" stroke-miterlimit="10" fill="none" fill-rule="evenodd"/><g><text font-family="Replica Std,Replica Std_MSFontService,sans-serif" font-weight="400" font-size="64" transform="matrix(1 0 0 1 3241.07 969)">Protéger la liberté d’expression en </text></g><g><text font-family="Replica Std,Replica Std_MSFontService,sans-serif" font-weight="400" font-size="64" transform="matrix(1 0 0 1 3241.07 1046)">ligne est plus important que de la </text></g><g><text font-family="Replica Std,Replica Std_MSFontService,sans-serif" font-weight="400" font-size="64" transform="matrix(1 0 0 1 3241.07 1123)">réglementer</text></g><g><text font-family="Replica Std,Replica Std_MSFontService,sans-serif" font-weight="400" font-size="64" transform="matrix(1 0 0 1 3241.07 1460)">Cela ne devrait pas être le rôle du </text></g><g><text font-family="Replica Std,Replica Std_MSFontService,sans-serif" font-weight="400" font-size="64" transform="matrix(1 0 0 1 3241.07 1537)">gouvernement d’intervenir sur les </text></g><g><text font-family="Replica Std,Replica Std_MSFontService,sans-serif" font-weight="400" font-size="64" transform="matrix(1 0 0 1 3241.07 1614)">plateformes en ligne</text></g><g><text font-family="Replica Std,Replica Std_MSFontService,sans-serif" font-weight="400" font-size="64" transform="matrix(1 0 0 1 3241.07 1835)">Le gouvernement ne peut pas </text></g><g><text font-family="Replica Std,Replica Std_MSFontService,sans-serif" font-weight="400" font-size="64" transform="matrix(1 0 0 1 3241.07 1912)">surveiller et décider de ce qui est </text></g><g clip-path="url(#clip4)"><text font-family="Replica Std,Replica Std_MSFontService,sans-serif" font-weight="400" font-size="64" transform="matrix(1 0 0 1 3241.07 1989)">vrai ou faux, et ne devrait pas jouer </text></g><g><text font-family="Replica Std,Replica Std_MSFontService,sans-serif" font-weight="400" font-size="64" transform="matrix(1 0 0 1 3241.07 2066)">un rôle dans la lutte contre la </text></g><g><text font-family="Replica Std,Replica Std_MSFontService,sans-serif" font-weight="400" font-size="64" transform="matrix(1 0 0 1 3241.07 2143)">propagation délibérée de fausses </text></g><g><text font-family="Replica Std,Replica Std_MSFontService,sans-serif" font-weight="400" font-size="64" transform="matrix(1 0 0 1 3241.07 2220)">informations</text></g><text font-family="Calibri,Calibri_MSFontService,sans-serif" font-weight="700" font-size="73" transform="matrix(1 0 0 1 270.651 746)">Pro</text><text font-family="Calibri,Calibri_MSFontService,sans-serif" font-weight="700" font-size="73" transform="matrix(1 0 0 1 375.495 746)">-</text><text font-family="Calibri,Calibri_MSFontService,sans-serif" font-weight="700" font-size="73" transform="matrix(1 0 0 1 397.838 746)">réglementation</text><text font-family="Calibri,Calibri_MSFontService,sans-serif" font-weight="700" font-size="73" transform="matrix(1 0 0 1 3425.55 746)">Anti</text><text font-family="Calibri,Calibri_MSFontService,sans-serif" font-weight="700" font-size="73" transform="matrix(1 0 0 1 3552.74 746)">-</text><text font-family="Calibri,Calibri_MSFontService,sans-serif" font-weight="700" font-size="73" transform="matrix(1 0 0 1 3575.08 746)">réglementation</text></g></svg>